<svg width="380" height="260" viewBox="0 0 380 260" fill="none" xmlns="http://www.w3.org/2000/svg">
<path d="M67.7896 115.422V81.9465H85.2925C87.6198 81.9465 89.5486 82.345 91.0789 83.142C92.6411 83.9072 93.8048 84.9752 94.57 86.3461C95.367 87.717 95.7655 89.2792 95.7655 91.0327C95.7655 92.3717 95.5105 93.6788 95.0003 94.9541C94.5221 96.2293 93.5976 97.2655 92.2267 98.0625V98.1581C93.6613 98.6682 94.825 99.5609 95.7177 100.836C96.6422 102.08 97.1045 103.514 97.1045 105.14C97.1045 107.181 96.6741 108.982 95.8133 110.544C94.9525 112.074 93.6773 113.27 91.9876 114.131C90.3297 114.991 88.2574 115.422 85.7707 115.422H67.7896ZM76.2063 108.488H84.0491C85.5157 108.488 86.6156 108.217 87.3488 107.675C88.114 107.101 88.4966 106.144 88.4966 104.805C88.4966 103.626 88.1618 102.749 87.4923 102.175C86.8547 101.569 85.8823 101.267 84.5752 101.267H76.2063V108.488ZM76.2063 95.3845H84.1926C85.3722 95.3845 86.2649 95.1135 86.8706 94.5715C87.5082 93.9976 87.8271 93.1368 87.8271 91.9891C87.8271 90.8732 87.4923 90.0443 86.8228 89.5023C86.1852 88.9285 85.1331 88.6416 83.6665 88.6416H76.2063V95.3845ZM117.132 115.9C113.976 115.9 111.234 115.342 108.907 114.226C106.611 113.11 104.842 111.516 103.599 109.444C102.355 107.34 101.734 104.821 101.734 101.888V81.9465H110.15V100.693C110.15 103.434 110.788 105.347 112.063 106.431C113.338 107.483 115.124 108.009 117.419 108.009C119.715 108.009 121.468 107.483 122.68 106.431C123.923 105.347 124.545 103.434 124.545 100.693V81.9465H132.674V101.888C132.674 104.821 132.021 107.34 130.714 109.444C129.438 111.516 127.637 113.11 125.31 114.226C122.982 115.342 120.257 115.9 117.132 115.9ZM138.938 115.422V81.9465H147.355V115.422H138.938ZM154.501 115.422V81.9465H162.917V108.057H179.464V115.422H154.501ZM184.167 115.422V81.9465H197.175C200.809 81.9465 203.981 82.5682 206.691 83.8115C209.401 85.0549 211.505 86.92 213.004 89.4067C214.534 91.8935 215.299 95.0019 215.299 98.732C215.299 102.239 214.55 105.252 213.052 107.77C211.553 110.257 209.417 112.154 206.643 113.461C203.87 114.768 200.586 115.422 196.792 115.422H184.167ZM192.584 108.057H196.936C199.135 108.057 200.953 107.707 202.387 107.005C203.822 106.304 204.89 105.268 205.591 103.897C206.325 102.526 206.691 100.804 206.691 98.732C206.691 96.4365 206.341 94.6034 205.639 93.2325C204.97 91.8616 203.918 90.8732 202.483 90.2675C201.048 89.6299 199.199 89.3111 196.936 89.3111H192.584V108.057ZM221.119 115.422V81.9465H247.325V89.2154H229.536V95.0497H245.412V101.697H229.536V108.105H247.66V115.422H221.119ZM252.98 115.422V81.9465H269.288C271.774 81.9465 273.91 82.3769 275.696 83.2377C277.513 84.0985 278.916 85.3259 279.904 86.92C280.924 88.514 281.434 90.411 281.434 92.6108C281.434 94.6193 281.036 96.325 280.239 97.7277C279.474 99.1305 278.406 100.262 277.035 101.123C275.696 101.952 274.15 102.574 272.396 102.988C270.643 103.371 268.793 103.562 266.849 103.562H261.397V115.422H252.98ZM273.879 115.422L266.61 102.749L274.548 101.219L283.204 115.422H273.879ZM261.397 97.2973H267.853C269.575 97.2973 270.866 96.9466 271.727 96.2453C272.619 95.512 273.066 94.444 273.066 93.0412C273.066 91.6703 272.619 90.666 271.727 90.0284C270.866 89.3908 269.559 89.072 267.805 89.072H261.397V97.2973ZM299.263 115.9C297.51 115.9 295.788 115.773 294.099 115.518C292.409 115.262 290.751 114.912 289.125 114.465L286.208 113.652L287.547 107.196L291.325 107.77C292.441 107.93 293.732 108.089 295.199 108.249C296.697 108.376 298.164 108.44 299.598 108.44C301.256 108.44 302.452 108.217 303.185 107.77C303.95 107.292 304.333 106.623 304.333 105.762C304.333 105.284 304.205 104.869 303.95 104.518C303.695 104.168 303.105 103.801 302.181 103.419C301.288 103.004 299.885 102.51 297.972 101.936C295.326 101.139 293.222 100.326 291.66 99.4971C290.098 98.6364 288.982 97.6002 288.312 96.3887C287.675 95.1453 287.356 93.5672 287.356 91.6543C287.356 89.2632 287.946 87.3185 289.125 85.8201C290.337 84.3216 291.979 83.2217 294.051 82.5203C296.155 81.8189 298.514 81.4683 301.128 81.4683C302.595 81.4683 304.093 81.5798 305.624 81.803C307.186 82.0262 308.732 82.345 310.262 82.7594L312.558 83.3333L311.362 89.6936L307.728 89.2632C306.867 89.1676 305.879 89.072 304.763 88.9763C303.679 88.8807 302.467 88.8328 301.128 88.8328C299.375 88.8328 298.068 89.056 297.207 89.5023C296.346 89.9487 295.916 90.6341 295.916 91.5587C295.916 92.005 296.059 92.4036 296.346 92.7542C296.665 93.0731 297.319 93.4078 298.307 93.7585C299.327 94.0773 300.857 94.5237 302.898 95.0975C305.512 95.7352 307.569 96.5003 309.067 97.393C310.565 98.2857 311.633 99.3377 312.271 100.549C312.909 101.729 313.227 103.164 313.227 104.853C313.227 107.372 312.606 109.444 311.362 111.07C310.119 112.696 308.445 113.908 306.341 114.705C304.237 115.502 301.878 115.9 299.263 115.9Z" fill="white"/>
<path d="M68.0188 157.723V124.247H75.4791L90.9256 142.946H91.0212V124.247H99.3901V157.723H92.4081L76.4833 138.307H76.3877V157.723H68.0188ZM103.596 157.723V124.247H129.802V131.516H112.012V137.35H127.889V143.998H112.012V150.406H130.137V157.723H103.596ZM141.387 157.723V131.612H130.627V124.247H160.516V131.612H149.804V157.723H141.387ZM171.548 157.866L160.358 124.247H169.205L175.804 147.106H175.995L182.403 124.152H190.103L196.75 146.867H196.941L203.684 124.247H212.101L201.293 157.866H192.733L186.181 135.916H186.038L179.821 157.866H171.548ZM227.283 158.201C223.713 158.201 220.62 157.484 218.006 156.049C215.423 154.582 213.431 152.558 212.028 149.975C210.625 147.393 209.924 144.38 209.924 140.937C209.924 137.494 210.641 134.497 212.076 131.947C213.542 129.364 215.583 127.356 218.197 125.921C220.811 124.486 223.84 123.769 227.283 123.769C230.854 123.769 233.931 124.502 236.513 125.969C239.127 127.404 241.136 129.412 242.539 131.994C243.941 134.545 244.643 137.542 244.643 140.985C244.643 144.428 243.909 147.441 242.443 150.023C241.008 152.606 238.984 154.614 236.369 156.049C233.755 157.484 230.726 158.201 227.283 158.201ZM227.283 150.406C229.069 150.406 230.599 150.087 231.874 149.449C233.181 148.78 234.202 147.744 234.935 146.341C235.668 144.938 236.035 143.137 236.035 140.937C236.035 138.737 235.684 136.952 234.983 135.581C234.281 134.21 233.277 133.206 231.97 132.568C230.663 131.899 229.101 131.564 227.283 131.564C225.498 131.564 223.952 131.899 222.645 132.568C221.337 133.206 220.317 134.21 219.584 135.581C218.883 136.952 218.532 138.753 218.532 140.985C218.532 143.185 218.883 144.986 219.584 146.389C220.285 147.76 221.29 148.78 222.597 149.449C223.904 150.087 225.466 150.406 227.283 150.406ZM247.585 157.723V124.247H263.892C266.379 124.247 268.515 124.678 270.3 125.538C272.118 126.399 273.52 127.627 274.509 129.221C275.529 130.815 276.039 132.712 276.039 134.912C276.039 136.92 275.64 138.626 274.843 140.029C274.078 141.431 273.01 142.563 271.639 143.424C270.3 144.253 268.754 144.874 267.001 145.289C265.247 145.672 263.398 145.863 261.453 145.863H256.002V157.723H247.585ZM268.483 157.723L261.214 145.05L269.153 143.52L277.808 157.723H268.483ZM256.002 139.598H262.457C264.179 139.598 265.47 139.247 266.331 138.546C267.224 137.813 267.67 136.745 267.67 135.342C267.67 133.971 267.224 132.967 266.331 132.329C265.47 131.692 264.163 131.373 262.41 131.373H256.002V139.598ZM299.32 157.723L290.425 144.237H284.59L285.117 137.59H290.329L299.367 124.247H308.597L297.407 140.459L309.41 157.723H299.32ZM279.426 157.723V124.247H287.842V157.723H279.426Z" fill="white"/>
<path d="M208.333 183.637V166.543H216.025C217.149 166.543 218.093 166.738 218.858 167.129C219.623 167.503 220.201 168.024 220.592 168.692C220.999 169.359 221.202 170.124 221.202 170.987C221.202 171.785 221.04 172.526 220.714 173.209C220.405 173.893 219.827 174.406 218.98 174.748V174.772C219.81 174.984 220.502 175.432 221.056 176.115C221.609 176.799 221.886 177.629 221.886 178.606C221.886 179.632 221.666 180.519 221.227 181.268C220.787 182.017 220.152 182.603 219.322 183.026C218.492 183.433 217.482 183.637 216.294 183.637H208.333ZM210.922 181.341H216.172C217.198 181.341 217.963 181.113 218.467 180.658C218.972 180.202 219.224 179.494 219.224 178.533C219.224 177.719 218.964 177.1 218.443 176.677C217.922 176.238 217.206 176.018 216.294 176.018H210.922V181.341ZM210.922 173.722H216.123C216.986 173.722 217.629 173.511 218.052 173.087C218.492 172.664 218.712 172.054 218.712 171.256C218.712 170.491 218.484 169.897 218.028 169.473C217.572 169.05 216.856 168.838 215.879 168.838H210.922V173.722ZM225.217 188.74C224.972 188.74 224.671 188.716 224.313 188.667C223.955 188.618 223.564 188.537 223.141 188.423L222.262 188.179L222.628 186.274L223.434 186.372C223.711 186.388 223.979 186.404 224.24 186.421C224.5 186.437 224.72 186.445 224.899 186.445C225.306 186.445 225.632 186.355 225.876 186.176C226.136 186.014 226.348 185.745 226.511 185.371L227.219 183.588L222.189 171.354H224.899L228.489 180.682H228.611L232.176 171.354H234.765L228.464 186.567C228.155 187.332 227.732 187.886 227.195 188.228C226.674 188.57 226.014 188.74 225.217 188.74Z" fill="white"/>
<path d="M269.006 166.906C270.637 166.906 272.151 167.415 273.409 168.285V167.163C273.409 167.024 273.522 166.912 273.661 166.912H276.68C276.818 166.912 276.931 167.024 276.931 167.163V183.01C276.93 183.148 276.818 183.261 276.68 183.261H273.661C273.522 183.261 273.409 183.148 273.409 183.01V181.876C272.151 182.746 270.637 183.256 269.006 183.256C264.623 183.256 261.082 179.588 261.082 175.081C261.082 170.574 264.623 166.906 269.006 166.906ZM269.135 170.929C266.773 170.929 264.859 172.844 264.858 175.205C264.859 177.566 266.773 179.48 269.135 179.48C271.484 179.48 273.39 177.586 273.409 175.241V175.168C273.389 172.824 271.484 170.929 269.135 170.929ZM263.848 169.216V169.217V169.216Z" fill="white"/>
<path d="M302.209 166.906C306.592 166.907 310.132 170.574 310.132 175.081C310.132 179.588 306.592 183.255 302.209 183.256C297.826 183.256 294.285 179.588 294.285 175.081C294.285 170.574 297.826 166.906 302.209 166.906ZM302.337 170.677C299.975 170.677 298.062 172.592 298.062 174.953C298.062 177.315 299.975 179.229 302.337 179.229C304.698 179.229 306.613 177.315 306.613 174.953C306.613 172.592 304.698 170.677 302.337 170.677Z" fill="white"/>
<path d="M253.792 171.381C253.647 170.684 253.299 170.041 252.828 169.507C251.963 168.526 250.878 167.781 249.667 167.345C248.128 166.792 246.463 166.766 244.909 167.271C243.355 167.777 241.991 168.788 241.012 170.161C240.033 171.534 239.488 173.199 239.455 174.919C239.422 176.639 239.902 178.326 240.828 179.74C241.754 181.154 243.078 182.223 244.611 182.794C246.145 183.366 247.809 183.412 249.369 182.924C250.928 182.437 252.302 181.442 253.296 180.08L253.432 179.831C253.671 179.394 253.843 178.924 253.944 178.436L253.979 178.266C254.011 178.11 253.892 177.964 253.733 177.964H252.171H250.833C250.752 177.964 250.677 178.003 250.628 178.066C250.062 178.799 249.301 179.335 248.441 179.603C247.543 179.884 246.583 179.858 245.699 179.528C244.816 179.199 244.053 178.583 243.519 177.768C242.985 176.953 242.708 175.98 242.727 174.989C242.746 173.998 243.06 173.038 243.625 172.247C244.189 171.456 244.975 170.873 245.871 170.581C246.767 170.29 247.726 170.305 248.613 170.624C249.46 170.929 250.188 171.535 250.724 172.292C250.772 172.36 250.85 172.402 250.934 172.402H252.296H253.648C253.793 172.402 253.908 172.279 253.895 172.134C253.874 171.917 253.84 171.609 253.792 171.381Z" fill="white"/>
<circle cx="281.078" cy="164.265" r="1.88644" fill="white"/>
<rect x="279.191" y="166.91" width="3.77287" height="16.3491" rx="0.251525" fill="white"/>
<path d="M288.498 166.906C288.637 166.906 288.749 167.019 288.749 167.158V168.159C289.24 167.837 289.764 167.571 290.315 167.368C291.851 166.804 293.51 166.757 295.068 167.229C295.198 167.269 295.269 167.406 295.23 167.535L294.242 170.849C294.201 170.985 294.056 171.06 293.918 171.023C293.132 170.813 292.304 170.851 291.535 171.134C290.684 171.447 289.95 172.043 289.442 172.836C289.068 173.421 288.832 174.09 288.749 174.785V183.004C288.749 183.143 288.637 183.256 288.498 183.256H285.228C285.089 183.256 284.977 183.143 284.977 183.004V167.158C284.977 167.019 285.089 166.906 285.228 166.906H288.498Z" fill="white"/>
<rect x="255.551" y="162.133" width="3.77287" height="21.1281" rx="0.251525" fill="white"/>
</svg>
